# 
# Wavefront OBJ file
# Created with Autodesk FBX SDK
# 
g Plane
v 0.500000 -0.000000 0.000000
v -0.500000 0.000000 -0.000000
v -0.500000 1.000000 -0.000000
v 0.500000 1.000000 -0.000000
v 0.500000 -0.000000 0.000000
v 0.500000 1.000000 -0.000000
v -0.500000 1.000000 -0.000000
v -0.500000 0.000000 -0.000000
v -0.000000 -0.000000 -0.500000
v 0.000000 0.000000 0.500000
v -0.000000 1.000000 0.500000
v -0.000000 0.999999 -0.500000
v -0.000000 -0.000000 -0.500000
v -0.000000 0.999999 -0.500000
v -0.000000 1.000000 0.500000
v 0.000000 0.000000 0.500000
vt 0.000000 0.000000
vt 1.000000 0.000000
vt 1.000000 1.000000
vt 0.000000 1.000000
vt 0.000000 0.000000
vt 0.000000 1.000000
vt 1.000000 1.000000
vt 1.000000 0.000000
vt 0.000000 0.000000
vt 1.000000 0.000000
vt 1.000000 1.000000
vt 0.000000 1.000000
vt 0.000000 0.000000
vt 0.000000 1.000000
vt 1.000000 1.000000
vt 1.000000 0.000000
vn 0.000000 -0.000000 -1.000000
vn 0.000000 -0.000000 -1.000000
vn 0.000000 -0.000000 -1.000000
vn 0.000000 -0.000000 -1.000000
vn -0.000000 0.000000 1.000000
vn -0.000000 0.000000 1.000000
vn -0.000000 0.000000 1.000000
vn -0.000000 0.000000 1.000000
vn -1.000000 -0.000000 0.000000
vn -1.000000 -0.000000 0.000000
vn -1.000000 -0.000000 0.000000
vn -1.000000 -0.000000 0.000000
vn 1.000000 0.000000 -0.000000
vn 1.000000 0.000000 -0.000000
vn 1.000000 0.000000 -0.000000
vn 1.000000 0.000000 -0.000000
f 2/2/2 4/4/4 1/1/1
f 4/4/4 2/2/2 3/3/3
f 6/6/6 8/8/8 5/5/5
f 8/8/8 6/6/6 7/7/7
f 10/10/10 12/12/12 9/9/9
f 12/12/12 10/10/10 11/11/11
f 16/16/16 14/14/14 15/15/15
f 14/14/14 16/16/16 13/13/13
