# Blender 3.2.0
# www.blender.org
mtllib leg_test.mtl
o Thigh
v -1.227991 -0.869998 0.711432
v -1.061269 0.316292 1.023025
v -1.208572 -0.731822 -0.057880
v -1.041850 0.454468 0.253713
v -0.765371 -0.935015 0.711432
v -0.598649 0.251275 1.023025
v -1.144630 -0.276853 0.867229
v -1.218282 -0.800910 0.326776
v -1.051560 0.385380 0.638369
v -1.125211 -0.138677 0.097916
v -0.745951 -0.796839 -0.057880
v -0.579229 0.389451 0.253713
v -0.588939 0.320363 0.638369
v -0.755661 -0.865927 0.326776
v -0.662590 -0.203694 0.097916
v -1.134921 -0.207765 0.482572
v -0.682010 -0.341870 0.867229
v -0.672300 -0.272782 0.482573
v -0.829959 0.283783 1.023025
v -1.186311 -0.573425 0.789330
v -1.223136 -0.835454 0.519104
v -1.046705 0.419924 0.446041
v -1.166892 -0.435249 0.020018
v -0.977262 -0.764330 -0.057880
v -0.996681 -0.902506 0.711432
v -1.102950 0.019719 0.945127
v -1.213427 -0.766366 0.134448
v -1.056414 0.350836 0.830697
v -1.083530 0.157895 0.175815
v -0.810540 0.421959 0.253713
v -0.820249 0.352871 0.638369
v -0.584084 0.354907 0.446041
v -0.593794 0.285819 0.830697
v -0.986971 -0.833418 0.326776
v -0.760516 -0.900471 0.519104
v -0.750806 -0.831383 0.134448
v -0.893901 -0.171185 0.097916
v -0.704271 -0.500266 0.020018
v -0.620910 0.092878 0.175815
v -1.130066 -0.173221 0.290244
v -1.139776 -0.242309 0.674901
v -1.176601 -0.504337 0.404674
v -1.093240 0.088807 0.560471
v -0.913320 -0.309362 0.867229
v -0.723690 -0.638442 0.789330
v -0.640329 -0.045298 0.945127
v -0.677155 -0.307326 0.674901
v -0.667445 -0.238238 0.290245
v -0.713981 -0.569355 0.404675
v -0.630620 0.023790 0.560471
v -0.625765 0.058334 0.368143
v -0.709126 -0.534810 0.212346
v -0.718835 -0.603898 0.597002
v -0.635474 -0.010754 0.752799
v -0.955001 -0.605934 0.789330
v -1.098095 0.054263 0.752799
v -1.181456 -0.538882 0.597002
v -1.171746 -0.469793 0.212346
v -0.852220 0.125387 0.175815
v -0.935581 -0.467758 0.020018
v -0.982117 -0.798874 0.134448
v -0.991826 -0.867962 0.519104
v -0.825104 0.318327 0.830697
v -0.815395 0.387415 0.446041
v -1.088385 0.123351 0.368143
v -0.871639 -0.012789 0.945127
vn -0.0350 -0.2493 0.9678
vn -0.9903 0.1392 -0.0000
vn 0.1369 0.9744 0.1785
vn -0.1369 -0.9744 -0.1785
vn 0.0350 0.2493 -0.9678
vn 0.9903 -0.1392 -0.0000
vt 0.375000 0.250000
vt 0.125000 0.500000
vt 0.625000 0.250000
vt 0.875000 0.500000
vt 0.375000 0.500000
vt 0.625000 0.500000
vt 0.375000 0.125000
vt 0.125000 0.625000
vt 0.875000 0.625000
vt 0.625000 0.125000
vt 0.500000 0.250000
vt 0.375000 0.375000
vt 0.250000 0.500000
vt 0.750000 0.500000
vt 0.625000 0.375000
vt 0.500000 0.500000
vt 0.375000 0.625000
vt 0.625000 0.625000
vt 0.750000 0.625000
vt 0.250000 0.625000
vt 0.500000 0.625000
vt 0.500000 0.375000
vt 0.500000 0.125000
vt 0.500000 0.374999
vt 0.875000 0.562500
vt 0.625000 0.187500
vt 0.437500 0.250000
vt 0.375000 0.312500
vt 0.187500 0.500000
vt 0.687500 0.500000
vt 0.625000 0.437500
vt 0.437500 0.500000
vt 0.375000 0.562500
vt 0.375000 0.187500
vt 0.125000 0.562500
vt 0.562500 0.250000
vt 0.375000 0.437500
vt 0.312500 0.500000
vt 0.625000 0.312500
vt 0.812500 0.500000
vt 0.562500 0.500000
vt 0.625000 0.562500
vt 0.750000 0.562500
vt 0.687500 0.625000
vt 0.812500 0.625000
vt 0.250000 0.562500
vt 0.312500 0.375000
vt 0.187500 0.625000
vt 0.312500 0.625000
vt 0.500000 0.562500
vt 0.437500 0.625000
vt 0.562500 0.625000
vt 0.500000 0.437500
vt 0.500000 0.312500
vt 0.437500 0.375000
vt 0.562500 0.375000
vt 0.500000 0.187500
vt 0.437500 0.125000
vt 0.687500 0.375000
vt 0.562500 0.125000
vt 0.500000 0.250000
vt 0.500000 0.500000
vt 0.375000 0.500000
vt 0.625000 0.500000
vt 0.593750 0.562500
vt 0.406250 0.562500
vt 0.406250 0.312500
vt 0.656250 0.437500
vt 0.437500 0.187500
vt 0.562500 0.312500
vt 0.437500 0.312500
vt 0.437500 0.437500
vt 0.562500 0.562500
vt 0.437500 0.562500
vt 0.312500 0.562500
vt 0.187500 0.562500
vt 0.812500 0.562500
vt 0.687500 0.562500
vt 0.562500 0.437500
vt 0.562500 0.187500
s 0
f 66/80/1 19/26/1 2/3/1 26/36/1
f 65/79/2 22/31/2 4/6/2 29/41/2
f 64/78/3 31/43/3 13/19/3 32/44/3
f 63/77/3 19/25/3 6/9/3 33/45/3
f 62/76/4 34/46/4 14/20/4 35/48/4
f 61/75/4 24/33/4 11/17/4 36/49/4
f 60/74/5 37/50/5 15/21/5 38/51/5
f 59/73/5 30/42/5 12/18/5 39/52/5
f 58/72/2 40/53/2 10/16/2 23/32/2
f 57/71/2 41/54/2 16/22/2 42/55/2
f 56/70/2 28/39/2 9/15/2 43/56/2
f 55/69/1 44/57/1 7/11/1 20/27/1
f 54/68/6 46/59/6 17/23/6 47/61/6
f 53/67/6 49/63/6 18/24/6 47/61/6
f 52/66/6 36/49/6 11/17/6 38/51/6
f 51/65/6 39/52/6 12/18/6 32/44/6
f 50/64/6 51/65/6 32/44/6 13/19/6
f 18/24/6 48/62/6 51/65/6 50/64/6
f 48/62/6 15/21/6 39/52/6 51/65/6
f 48/62/6 52/66/6 38/51/6 15/21/6
f 18/24/6 49/63/6 52/66/6 48/62/6
f 49/63/6 14/20/6 36/49/6 52/66/6
f 45/58/6 53/67/6 47/61/6 17/23/6
f 5/7/6 35/47/6 53/67/6 45/58/6
f 35/47/6 14/20/6 49/63/6 53/67/6
f 50/64/6 54/68/6 47/61/6 18/24/6
f 13/19/6 33/45/6 54/68/6 50/64/6
f 33/45/6 6/9/6 46/59/6 54/68/6
f 25/34/1 55/69/1 20/27/1 1/1/1
f 5/7/1 45/58/1 55/69/1 25/34/1
f 45/58/1 17/23/1 44/57/1 55/69/1
f 41/54/2 56/70/2 43/56/2 16/22/2
f 7/11/2 26/36/2 56/70/2 41/54/2
f 26/36/2 2/3/2 28/39/2 56/70/2
f 21/28/2 57/71/2 42/55/2 8/12/2
f 1/1/2 20/27/2 57/71/2 21/28/2
f 20/27/2 7/11/2 41/54/2 57/71/2
f 27/37/2 58/72/2 23/32/2 3/5/2
f 8/12/2 42/55/2 58/72/2 27/37/2
f 42/55/2 16/22/2 40/53/2 58/72/2
f 37/50/5 59/73/5 39/52/5 15/21/5
f 10/16/5 29/41/5 59/73/5 37/50/5
f 29/41/5 4/6/5 30/42/5 59/73/5
f 24/33/5 60/74/5 38/51/5 11/17/5
f 3/5/5 23/32/5 60/74/5 24/33/5
f 23/32/5 10/16/5 37/50/5 60/74/5
f 34/46/4 61/75/4 36/49/4 14/20/4
f 8/13/4 27/38/4 61/75/4 34/46/4
f 27/38/4 3/5/4 24/33/4 61/75/4
f 25/35/4 62/76/4 35/48/4 5/8/4
f 1/2/4 21/29/4 62/76/4 25/35/4
f 21/29/4 8/13/4 34/46/4 62/76/4
f 31/43/3 63/77/3 33/45/3 13/19/3
f 9/14/3 28/40/3 63/77/3 31/43/3
f 28/40/3 2/4/3 19/25/3 63/77/3
f 30/42/3 64/78/3 32/44/3 12/18/3
f 4/6/3 22/30/3 64/78/3 30/42/3
f 22/30/3 9/14/3 31/43/3 64/78/3
f 40/53/2 65/79/2 29/41/2 10/16/2
f 16/22/2 43/56/2 65/79/2 40/53/2
f 43/56/2 9/15/2 22/31/2 65/79/2
f 44/57/1 66/80/1 26/36/1 7/11/1
f 17/23/1 46/60/1 66/80/1 44/57/1
f 46/60/1 6/10/1 19/26/1 66/80/1
o Knee
v -0.509576 -0.426578 -0.452882
v -0.509576 -1.363267 -0.202459
v -1.394198 -0.426578 -0.452882
v -1.394198 -1.363267 -0.202459
v -0.509576 -0.360892 -0.157593
v -0.509576 -1.297582 0.092830
v -1.394198 -0.360892 -0.157593
v -1.394198 -1.297582 0.092830
v -0.951887 -0.426578 -0.452882
v -0.509576 -0.894922 -0.327671
v -0.951887 -1.363267 -0.202459
v -1.394198 -0.894922 -0.327670
v -1.394198 -0.393735 -0.305238
v -1.394198 -1.330424 -0.054814
v -1.394198 -0.829237 -0.032382
v -0.951887 -0.360892 -0.157593
v -0.951887 -1.297582 0.092830
v -0.509576 -0.829237 -0.032382
v -0.509576 -0.393735 -0.305238
v -0.509576 -1.330424 -0.054814
v -0.951887 -1.330424 -0.054814
v -0.951887 -0.393735 -0.305238
v -0.509576 -0.862080 -0.180026
v -0.951887 -0.829237 -0.032382
v -1.394198 -0.862080 -0.180026
v -0.951887 -0.894922 -0.327671
v -0.679140 -1.083728 0.534043
v -0.679140 -0.601196 0.405038
v -1.223641 -1.083728 0.534043
v -1.223641 -0.601196 0.405039
v -0.679140 -1.201401 0.005044
v -0.679140 -0.718869 -0.123960
v -1.223641 -1.201401 0.005044
v -1.223641 -0.718869 -0.123960
vn -0.0000 -0.2583 -0.9661
vn -1.0000 -0.0000 -0.0000
vn -0.0000 0.2583 0.9661
vn 1.0000 -0.0000 -0.0000
vn -0.0000 0.9761 -0.2171
vn -0.0000 -0.9761 0.2171
vt 0.125000 0.750000
vt 0.375000 1.000000
vt 0.375000 0.000000
vt 0.625000 1.000000
vt 0.875000 0.750000
vt 0.625000 0.000000
vt 0.125000 0.500000
vt 0.375000 0.250000
vt 0.875000 0.500000
vt 0.625000 0.250000
vt 0.375000 0.750000
vt 0.625000 0.750000
vt 0.375000 0.500000
vt 0.625000 0.500000
vt 0.125000 0.625000
vt 0.375000 0.125000
vt 0.500000 1.000000
vt 0.500000 0.000000
vt 0.875000 0.625000
vt 0.625000 0.125000
vt 0.500000 0.250000
vt 0.250000 0.500000
vt 0.375000 0.375000
vt 0.750000 0.500000
vt 0.625000 0.375000
vt 0.500000 0.500000
vt 0.375000 0.625000
vt 0.625000 0.625000
vt 0.500000 0.750000
vt 0.250000 0.750000
vt 0.375000 0.875000
vt 0.750000 0.750000
vt 0.625000 0.875000
vt 0.750000 0.625000
vt 0.250000 0.625000
vt 0.500000 0.875000
vt 0.500000 0.625000
vt 0.500000 0.375000
vt 0.500000 0.125000
vt 0.375000 0.000000
vt 0.375000 1.000000
vt 0.125000 0.750000
vt 0.625000 0.000000
vt 0.625000 1.000000
vt 0.875000 0.750000
vt 0.375000 0.250000
vt 0.125000 0.500000
vt 0.625000 0.250000
vt 0.875000 0.500000
vt 0.375000 0.750000
vt 0.625000 0.750000
vt 0.375000 0.500000
vt 0.625000 0.500000
s 0
f 92/119/7 77/100/7 70/90/7 78/101/7
f 91/118/8 80/105/8 74/94/8 81/106/8
f 90/117/9 83/108/9 72/92/9 84/109/9
f 89/116/10 86/113/10 68/84/10 76/97/10
f 88/115/11 82/107/11 71/91/11 85/110/11
f 87/114/12 77/99/12 68/85/12 86/112/12
f 83/108/12 87/114/12 86/112/12 72/92/12
f 74/94/12 80/104/12 87/114/12 83/108/12
f 80/104/12 70/89/12 77/99/12 87/114/12
f 75/95/11 88/115/11 85/110/11 67/81/11
f 69/87/11 79/102/11 88/115/11 75/95/11
f 79/102/11 73/93/11 82/107/11 88/115/11
f 85/111/10 89/116/10 76/97/10 67/82/10
f 71/91/10 84/109/10 89/116/10 85/111/10
f 84/109/10 72/92/10 86/113/10 89/116/10
f 82/107/9 90/117/9 84/109/9 71/91/9
f 73/93/9 81/106/9 90/117/9 82/107/9
f 81/106/9 74/94/9 83/108/9 90/117/9
f 79/103/8 91/118/8 81/106/8 73/93/8
f 69/88/8 78/101/8 91/118/8 79/103/8
f 78/101/8 70/90/8 80/105/8 91/118/8
f 75/96/7 92/119/7 78/101/7 69/88/7
f 67/83/7 76/98/7 92/119/7 75/96/7
f 76/98/7 68/86/7 77/100/7 92/119/7
f 93/120/9 94/123/9 96/128/9 95/126/9
f 95/126/8 96/128/8 100/133/8 99/132/8
f 99/132/7 100/133/7 98/131/7 97/130/7
f 97/130/10 98/131/10 94/124/10 93/121/10
f 95/127/12 99/132/12 97/130/12 93/122/12
f 100/133/11 96/129/11 94/125/11 98/131/11
o Calf
v -0.674529 -2.436467 0.591900
v -0.651881 -1.029274 0.556426
v -1.242170 -2.436467 0.591900
v -1.264819 -1.029274 0.556426
v -0.555911 -2.436467 -0.107367
v -0.651881 -1.029274 -0.043578
v -1.360788 -2.436467 -0.107367
v -1.264819 -1.029274 -0.043578
v -0.958350 -2.436467 -0.327762
vn -0.0000 0.0252 0.9997
vn -0.9955 0.0250 0.0909
vn -0.4791 0.0723 -0.8748
vn 0.9955 0.0250 0.0909
vn -0.0000 -1.0000 -0.0000
vn -0.0000 1.0000 -0.0000
vn 0.4791 0.0723 -0.8748
vn -0.0000 0.1980 -0.9802
vt 0.375000 0.000000
vt 0.375000 1.000000
vt 0.125000 0.750000
vt 0.625000 0.000000
vt 0.625000 1.000000
vt 0.875000 0.750000
vt 0.375000 0.250000
vt 0.125000 0.500000
vt 0.625000 0.250000
vt 0.875000 0.500000
vt 0.375000 0.750000
vt 0.625000 0.750000
vt 0.375000 0.500000
vt 0.625000 0.500000
vt 0.375000 0.625000
s 0
f 101/134/13 102/137/13 104/142/13 103/140/13
f 103/140/14 104/142/14 108/147/14 107/146/14
f 107/146/15 108/147/15 109/148/15
f 105/144/16 106/145/16 102/138/16 101/135/16
f 103/141/17 107/146/17 105/144/17 101/136/17
f 108/147/18 104/143/18 102/139/18 106/145/18
f 109/148/19 106/145/19 105/144/19
f 109/148/20 108/147/20 106/145/20
f 105/144/17 107/146/17 109/148/17
l 101 106
l 103 108
o Ankle
v -0.714787 -2.716933 0.504695
v -0.714787 -2.268835 0.504695
v -1.206037 -2.716933 0.504695
v -1.206037 -2.268835 0.504695
v -0.714787 -2.716933 0.013445
v -0.714787 -2.268835 0.013445
v -1.206037 -2.716933 0.013445
v -1.206037 -2.268835 0.013445
vn -0.0000 -0.0000 1.0000
vn -1.0000 -0.0000 -0.0000
vn -0.0000 -0.0000 -1.0000
vn 1.0000 -0.0000 -0.0000
vn -0.0000 -1.0000 -0.0000
vn -0.0000 1.0000 -0.0000
vt 0.375000 0.000000
vt 0.375000 1.000000
vt 0.125000 0.750000
vt 0.625000 0.000000
vt 0.625000 1.000000
vt 0.875000 0.750000
vt 0.375000 0.250000
vt 0.125000 0.500000
vt 0.625000 0.250000
vt 0.875000 0.500000
vt 0.375000 0.750000
vt 0.625000 0.750000
vt 0.375000 0.500000
vt 0.625000 0.500000
s 0
f 110/149/21 111/152/21 113/157/21 112/155/21
f 112/155/22 113/157/22 117/162/22 116/161/22
f 116/161/23 117/162/23 115/160/23 114/159/23
f 114/159/24 115/160/24 111/153/24 110/150/24
f 112/156/25 116/161/25 114/159/25 110/151/25
f 117/162/26 113/158/26 111/154/26 115/160/26
o Foot
v -0.650338 -2.983761 0.263449
v -0.650338 -2.585016 0.263449
v -1.270313 -2.983761 0.263449
v -1.270313 -2.585016 0.263449
v -0.650338 -2.983761 -0.356527
v -0.650338 -2.585016 -0.356527
v -1.270313 -2.983761 -0.356527
v -1.270313 -2.585016 -0.356527
vn -0.0000 -0.0000 1.0000
vn -1.0000 -0.0000 -0.0000
vn -0.0000 -0.0000 -1.0000
vn 1.0000 -0.0000 -0.0000
vn -0.0000 -1.0000 -0.0000
vn -0.0000 1.0000 -0.0000
vt 0.375000 0.000000
vt 0.375000 1.000000
vt 0.125000 0.750000
vt 0.625000 0.000000
vt 0.625000 1.000000
vt 0.875000 0.750000
vt 0.375000 0.250000
vt 0.125000 0.500000
vt 0.625000 0.250000
vt 0.875000 0.500000
vt 0.375000 0.750000
vt 0.625000 0.750000
vt 0.375000 0.500000
vt 0.625000 0.500000
s 0
f 118/163/27 119/166/27 121/171/27 120/169/27
f 120/169/28 121/171/28 125/176/28 124/175/28
f 124/175/29 125/176/29 123/174/29 122/173/29
f 122/173/30 123/174/30 119/167/30 118/164/30
f 120/170/31 124/175/31 122/173/31 118/165/31
f 125/176/32 121/172/32 119/168/32 123/174/32
o Heel
v -0.804503 -2.984977 0.636404
v -0.840845 -2.636715 0.600062
v -1.120698 -2.984977 0.636404
v -1.084356 -2.636715 0.600062
v -0.804503 -2.984977 0.320209
v -0.840845 -2.636715 0.356551
v -1.120698 -2.984977 0.320209
v -1.084356 -2.636715 0.356551
vn -0.0000 0.1038 0.9946
vn -0.9946 0.1038 -0.0000
vn -0.0000 0.1038 -0.9946
vn 0.9946 0.1038 -0.0000
vn -0.0000 -1.0000 -0.0000
vn -0.0000 1.0000 -0.0000
vt 0.375000 0.000000
vt 0.375000 1.000000
vt 0.125000 0.750000
vt 0.625000 0.000000
vt 0.625000 1.000000
vt 0.875000 0.750000
vt 0.375000 0.250000
vt 0.125000 0.500000
vt 0.625000 0.250000
vt 0.875000 0.500000
vt 0.375000 0.750000
vt 0.625000 0.750000
vt 0.375000 0.500000
vt 0.625000 0.500000
s 0
f 126/177/33 127/180/33 129/185/33 128/183/33
f 128/183/34 129/185/34 133/190/34 132/189/34
f 132/189/35 133/190/35 131/188/35 130/187/35
f 130/187/36 131/188/36 127/181/36 126/178/36
f 128/184/37 132/189/37 130/187/37 126/179/37
f 133/190/38 129/186/38 127/182/38 131/188/38
